<?xml version="1.0" encoding="UTF-8" standalone="no"?>
<svg
   version="1.1"
   fill="#00CC99"
   width="450px"
   height="451px"
   viewBox="-0.5 -0.5 450 451"
   id="svg34"
   sodipodi:docname="dimdates-icon.svg"
   inkscape:version="1.2.2 (b0a8486541, 2022-12-01)"
   xmlns:inkscape="http://www.inkscape.org/namespaces/inkscape"
   xmlns:sodipodi="http://sodipodi.sourceforge.net/DTD/sodipodi-0.dtd"
   xmlns="http://www.w3.org/2000/svg"
   xmlns:svg="http://www.w3.org/2000/svg">
  <sodipodi:namedview
     id="namedview36"
     pagecolor="#ffffff"
     bordercolor="#000000"
     borderopacity="0.25"
     inkscape:showpageshadow="2"
     inkscape:pageopacity="0.0"
     inkscape:pagecheckerboard="0"
     inkscape:deskcolor="#d1d1d1"
     showgrid="false"
     inkscape:zoom="0.2325"
     inkscape:cx="-17.204301"
     inkscape:cy="359.13978"
     inkscape:window-width="1350"
     inkscape:window-height="1016"
     inkscape:window-x="551"
     inkscape:window-y="29"
     inkscape:window-maximized="0"
     inkscape:current-layer="g32" />
  <defs
     id="defs24">
    <linearGradient
       id="linearGradient3877"
       inkscape:swatch="solid">
      <stop
         style="stop-color:#000000;stop-opacity:1;"
         offset="0"
         id="stop3875" />
    </linearGradient>
  </defs>
  <g
     id="g32">
    <path
       d="M 15 365 L 15 85 C 15 46.34 109.02 15 225 15 C 340.98 15 435 46.34 435 85 L 435 365 C 435 403.66 340.98 435 225 435 C 109.02 435 15 403.66 15 365 Z"
       fill="rgb(255, 255, 255)"
       stroke="rgb(0, 0, 0)"
       stroke-width="30"
       stroke-miterlimit="10"
       pointer-events="all"
       id="path26"
       style="stroke:#195190;stroke-opacity:1;fill:none;fill-opacity:1" />
    <path
       d="M 15 85 C 15 123.66 109.02 155 225 155 C 340.98 155 435 123.66 435 85"
       fill="none"
       stroke="rgb(0, 0, 0)"
       stroke-width="30"
       stroke-miterlimit="10"
       pointer-events="all"
       id="path28"
       style="stroke:#195190;stroke-opacity:1" />
    <path
       fill-rule="evenodd"
       clip-rule="evenodd"
       d="m 236.99933,389 v -49.99691 h 50.00928 V 389 Z m -74.99537,0 v -49.99691 h 49.99685 V 389 Z m -74.995366,0 V 339.00309 H 137.00552 V 389 Z M 236.99933,314.00465 V 264.0078 h 49.99673 v 49.99685 z m -74.99537,0 V 264.0078 h 49.99685 v 49.99685 z m -74.995366,0 V 264.0078 h 49.996926 v 49.99685 z M 311.99453,239.00928 V 189 h 49.99688 v 50.00928 z m 0,74.99537 V 264.0078 h 49.99688 v 49.99685 z m -74.9952,-74.99537 V 189 h 50.00928 v 50.00928 z m -74.99537,0 V 189 h 49.99685 v 50.00928 z"
       fill="#000000"
       id="path335"
       style="fill:#606060;fill-opacity:1;stroke:none;stroke-width:12.4981;stroke-opacity:1" />
  </g>
</svg>
